<svg xmlns="http://www.w3.org/2000/svg" xmlns:xlink="http://www.w3.org/1999/xlink" viewBox="0 0 512 452.12"><defs><style>.cls-1{fill:none;}.cls-2{fill:#008cba;}.cls-3{fill:#edeeee;}.cls-4{fill:#fff;}.cls-5{fill:#b3babe;}.cls-6{fill:#c1c5c6;}.cls-7{fill:#f98888;}.cls-8{fill:#ba752b;}.cls-9{fill:#ffa939;}.cls-10{fill:#00a795;}.cls-11{fill:#31bbad;}.cls-12{fill:#7b3e2c;}.cls-13{fill:#935740;}.cls-14{fill:#24c0df;}.cls-15{fill:#363637;}.cls-16{fill:#515254;}.cls-17{fill:#f4ad34;}.cls-18{fill:#fcc43d;}.cls-19{clip-path:url(#clip-path);}.cls-20{font-size:46px;fill:#515151;font-family:ArialRoundedMTBold, Arial Rounded MT Bold;}.cls-21{letter-spacing:-0.06em;}.cls-22{letter-spacing:-0.13em;}</style><clipPath id="clip-path"><path class="cls-1" d="M415.33,409.65H96.67a33.19,33.19,0,0,1-33.19-33.19V96.17A33.19,33.19,0,0,1,96.67,63H415.33a33.19,33.19,0,0,1,33.19,33.2V376.46A33.19,33.19,0,0,1,415.33,409.65Z"/></clipPath></defs><g id="Layer_9" data-name="Layer 9"><path class="cls-2" d="M415.33,409.36H96.67a33.19,33.19,0,0,1-33.19-33.19V95.87A33.19,33.19,0,0,1,96.67,62.68H415.33a33.19,33.19,0,0,1,33.19,33.19v280.3A33.19,33.19,0,0,1,415.33,409.36Z"/><path class="cls-3" d="M354.46,124.11a14.54,14.54,0,0,0-10.74-4.76H168.28A14.61,14.61,0,0,0,153.66,134V338.66a14.62,14.62,0,0,0,14.62,14.62H343.72a14.62,14.62,0,0,0,14.62-14.62V134A14.53,14.53,0,0,0,354.46,124.11Z"/><path class="cls-4" d="M241.38,137.62A3.66,3.66,0,0,1,245,134h36.56a3.66,3.66,0,0,1,3.65,3.65v36.55a3.66,3.66,0,0,1-3.65,3.66H245a3.66,3.66,0,0,1-3.65-3.66Zm-73.1,3.66a7.31,7.31,0,0,1,7.31-7.31h43.86a7.31,7.31,0,0,1,7.31,7.31V251.81L243,235.59a3.58,3.58,0,0,1-1.59-2.93V196.11a3.66,3.66,0,0,1,3.65-3.66h36.56a3.58,3.58,0,0,1,2.93,1.59l16.93-16.93a3.61,3.61,0,0,1-1.59-2.94V137.62a3.66,3.66,0,0,1,3.66-3.65h36.55a3.58,3.58,0,0,1,2.93,1.59l11.45-11.45a14.5,14.5,0,0,0-10.73-4.76H168.28A14.61,14.61,0,0,0,153.66,134V324.91l14.62-14.62Z"/><path class="cls-5" d="M219.45,134H175.59a7.31,7.31,0,0,0-7.31,7.31V331.35a7.31,7.31,0,0,0,7.31,7.31h43.86a7.31,7.31,0,0,0,7.31-7.31V141.28A7.31,7.31,0,0,0,219.45,134Z"/><path class="cls-6" d="M219.45,134H175.59a7.31,7.31,0,0,0-7.31,7.31v169l58.48-58.48V141.28A7.31,7.31,0,0,0,219.45,134Z"/><rect class="cls-7" x="241.38" y="133.97" width="43.86" height="43.86" rx="3.66"/><path class="cls-8" d="M343,135.56a3.58,3.58,0,0,0-2.93-1.59H303.52a3.66,3.66,0,0,0-3.66,3.65v36.55a3.59,3.59,0,0,0,1.6,2.94,3.52,3.52,0,0,0,2.06.72h36.55a3.65,3.65,0,0,0,3.65-3.66V137.62A3.57,3.57,0,0,0,343,135.56Z"/><path class="cls-9" d="M340.07,134H303.52a3.66,3.66,0,0,0-3.66,3.65v36.55a3.59,3.59,0,0,0,1.6,2.94L343,135.56A3.61,3.61,0,0,0,340.07,134Z"/><path class="cls-10" d="M284.52,194a3.58,3.58,0,0,0-2.93-1.59H245a3.66,3.66,0,0,0-3.65,3.66v36.55a3.84,3.84,0,0,0,3.65,3.65h36.56a3.66,3.66,0,0,0,3.65-3.65V196.11A3.57,3.57,0,0,0,284.52,194Z"/><path class="cls-11" d="M281.59,192.45H245a3.66,3.66,0,0,0-3.65,3.66v36.55a3.58,3.58,0,0,0,1.59,2.93L284.52,194A3.58,3.58,0,0,0,281.59,192.45Z"/><path class="cls-12" d="M197.52,192.45H182.9v14.62l6.85,109.74a7.72,7.72,0,0,0,7.69,7.23h.15a7.71,7.71,0,0,0,7.69-7.23l6.86-109.74V192.45Z"/><path class="cls-13" d="M182.9,192.45v14.62l6.85,109.74a7.72,7.72,0,0,0,7.69,7.23h.08V192.45Z"/><rect class="cls-11" x="299.86" y="192.45" width="43.86" height="43.86" rx="3.66"/><rect class="cls-14" x="241.38" y="250.93" width="43.86" height="43.86" rx="3.66"/><rect class="cls-14" x="299.86" y="250.93" width="43.86" height="43.86" rx="3.66"/><rect class="cls-8" x="241.38" y="309.42" width="102.34" height="29.24" rx="3.66"/><path class="cls-15" d="M197.52,144.93h0s-18.28,20.79-18.28,32.9c0,6.77,2.61,11.61,6.62,14.62h23.31c4-3,6.62-7.85,6.62-14.62C215.79,165.72,197.52,144.94,197.52,144.93Z"/><path class="cls-16" d="M179.24,177.83c0,6.77,2.61,11.61,6.62,14.62h11.66V144.93S179.24,165.72,179.24,177.83Z"/><polygon class="cls-17" points="197.52 192.45 182.9 192.45 182.9 207.07 197.52 207.07 212.14 207.07 212.14 192.45 197.52 192.45"/><polygon class="cls-18" points="185.86 192.45 182.9 192.45 182.9 207.07 197.52 207.07 197.52 192.45 185.86 192.45"/><g class="cls-19"><rect class="cls-7" x="55.49" y="324.91" width="397.13" height="85.59"/></g><text class="cls-20" transform="translate(113.64 384.61)">S<tspan class="cls-21" x="30.68" y="0">T</tspan><tspan x="56.53" y="0">AFF ON</tspan><tspan class="cls-22" x="228.07" y="0">L</tspan><tspan x="250.06" y="0">Y</tspan></text></g></svg>